<?xml version='1.0' encoding='utf-8'?>
<svg xmlns="http://www.w3.org/2000/svg" width="313" height="57" viewBox="0 0 313 57" fill="none">
<path d="M9.792 33.6H0C1.488 29.088 7.968 10.8 10.656 2.928L7.728 0.960002C7.2 0.624001 7.488 0 8.016 0H22.944L33.456 21.744L34.368 14.688L39.456 0H50.736L39.6 32.16C39.264 33.12 38.592 33.6 37.584 33.6H28.416C27.408 31.44 24.864 26.544 22.56 22.032C21.216 19.344 19.776 16.656 18.24 13.632C18.048 14.064 11.424 33.072 11.808 32.16C11.472 33.12 10.8 33.6 9.792 33.6Z" fill="#E8380D"/>
<path d="M9.792 33.6H0C1.488 29.088 7.968 10.8 10.656 2.928L7.728 0.960002C7.2 0.624001 7.488 0 8.016 0H22.944L33.456 21.744L34.368 14.688L39.456 0H50.736L39.6 32.16C39.264 33.12 38.592 33.6 37.584 33.6H28.416C27.408 31.44 24.864 26.544 22.56 22.032C21.216 19.344 19.776 16.656 18.24 13.632C18.048 14.064 11.424 33.072 11.808 32.16C11.472 33.12 10.8 33.6 9.792 33.6Z" fill="#E8380D"/>
<path d="M53.0321 33.6C49.9121 33.6 47.6561 30.48 48.7121 27.504L57.1121 2.928C56.9681 2.688 55.5281 1.728 54.3281 0.960002C53.8961 0.624001 54.0881 0 54.6161 0H92.7281L90.4241 6.672C90.0881 7.584 89.3201 8.112 88.4081 8.112H63.3041C62.7761 8.112 62.5841 8.736 62.9681 9.072L65.5601 11.424L64.8401 13.392H81.2561L79.3841 18.768C79.0481 19.68 78.2801 20.208 77.3681 20.208H60.2321C59.7041 20.208 59.5121 20.784 59.8481 21.12L61.6241 22.752L60.6641 25.488H83.9441L81.5921 32.16C81.2561 33.12 80.5841 33.6 79.5761 33.6H53.0321Z" fill="#E8380D"/>
<path d="M53.0321 33.6C49.9121 33.6 47.6561 30.48 48.7121 27.504L57.1121 2.928C56.9681 2.688 55.5281 1.728 54.3281 0.960002C53.8961 0.624001 54.0881 0 54.6161 0H92.7281L90.4241 6.672C90.0881 7.584 89.3201 8.112 88.4081 8.112H63.3041C62.7761 8.112 62.5841 8.736 62.9681 9.072L65.5601 11.424L64.8401 13.392H81.2561L79.3841 18.768C79.0481 19.68 78.2801 20.208 77.3681 20.208H60.2321C59.7041 20.208 59.5121 20.784 59.8481 21.12L61.6241 22.752L60.6641 25.488H83.9441L81.5921 32.16C81.2561 33.12 80.5841 33.6 79.5761 33.6H53.0321Z" fill="#E8380D"/>
<path d="M95.0854 0.960002C94.6534 0.624001 94.7974 0.0479994 95.3254 0H109.725L110.733 14.784L109.965 22.368L117.981 12.72C120.141 10.176 122.445 7.296 125.133 4.176H132.237C133.341 4.176 134.205 4.896 134.349 6L135.741 14.736L135.309 22.128C142.845 12.576 149.757 3.504 151.821 0.816001C152.253 0.288002 152.829 0 153.549 0H164.493C158.541 7.488 138.093 33.312 138.381 32.784C137.997 33.312 137.421 33.6 136.701 33.6H126.909L125.229 16.944C124.701 17.664 112.989 32.208 112.605 32.784C112.221 33.312 111.645 33.6 110.925 33.6H101.181C100.605 28.56 98.6374 7.92 98.0614 2.928C97.8694 2.784 97.1494 2.352 96.4294 1.824C95.9974 1.584 95.6134 1.296 95.0854 0.960002Z" fill="#E8380D"/>
<path d="M95.0854 0.960002C94.6534 0.624001 94.7974 0.0479994 95.3254 0H109.725L110.733 14.784L109.965 22.368L117.981 12.72C120.141 10.176 122.445 7.296 125.133 4.176H132.237C133.341 4.176 134.205 4.896 134.349 6L135.741 14.736L135.309 22.128C142.845 12.576 149.757 3.504 151.821 0.816001C152.253 0.288002 152.829 0 153.549 0H164.493C158.541 7.488 138.093 33.312 138.381 32.784C137.997 33.312 137.421 33.6 136.701 33.6H126.909L125.229 16.944C124.701 17.664 112.989 32.208 112.605 32.784C112.221 33.312 111.645 33.6 110.925 33.6H101.181C100.605 28.56 98.6374 7.92 98.0614 2.928C97.8694 2.784 97.1494 2.352 96.4294 1.824C95.9974 1.584 95.6134 1.296 95.0854 0.960002Z" fill="#E8380D"/>
<path d="M169.766 33.6H159.926C161.27 29.616 167.942 10.56 170.63 2.928L167.702 0.960002C167.174 0.624001 167.462 0 167.99 0H181.19L183.206 6.672C184.358 10.224 185.558 14.208 186.086 15.984C186.086 16.752 185.846 20.304 185.846 21.072C187.286 19.488 192.086 14.448 196.55 9.696C199.19 6.96 201.974 3.936 205.046 0.672C205.43 0.24 205.958 0 206.582 0H216.374C215.894 1.728 205.766 30.576 205.238 32.16C204.902 33.12 204.23 33.6 203.222 33.6H193.478L198.086 20.208L188.678 29.376C188.246 29.76 187.766 29.952 187.19 29.952H179.174L175.91 20.256L171.782 32.16C171.446 33.12 170.774 33.6 169.766 33.6Z" fill="#E8380D"/>
<path d="M213.999 33.6C215.919 27.696 222.447 9.504 224.559 2.976L221.631 0.960002C221.199 0.624001 221.391 0 221.919 0H264.111C262.575 4.416 255.183 26.256 253.263 32.16C252.927 33.12 252.255 33.6 251.247 33.6H241.311L244.287 25.488H228.111L225.807 32.16C225.471 33.12 224.799 33.6 223.791 33.6H213.999ZM233.199 10.8L230.463 18.672H246.639L249.855 9.264C250.143 8.496 249.807 8.112 248.847 8.112H231.615C231.087 8.112 230.895 8.736 231.279 9.072L233.199 10.8Z" fill="#E8380D"/>
<path d="M271.495 33.6H261.703C263.191 29.088 269.671 10.8 272.359 2.928L269.431 0.960002C268.903 0.624001 269.191 0 269.719 0H284.647L295.159 21.744L296.071 14.688L301.159 0H312.439L301.303 32.16C300.967 33.12 300.295 33.6 299.287 33.6H290.119C289.111 31.44 286.567 26.544 284.263 22.032C282.919 19.344 281.479 16.656 279.943 13.632C279.751 14.064 273.127 33.072 273.511 32.16C273.175 33.12 272.503 33.6 271.495 33.6Z" fill="#E8380D"/>
<path d="M26.8804 56.6001V45.936H30.623C31.8291 45.936 32.7666 46.229 33.4355 46.8149C34.1045 47.396 34.439 48.1992 34.439 49.2246C34.439 50.2549 34.1021 51.0703 33.4282 51.6709C32.7593 52.2715 31.8242 52.5718 30.623 52.5718H28.8433V56.6001H26.8804ZM28.8433 51.085H30.5645C31.2676 51.085 31.7607 50.9141 32.0439 50.5723C32.332 50.2305 32.4761 49.7861 32.4761 49.2393C32.4761 48.6924 32.332 48.2554 32.0439 47.9282C31.7607 47.5962 31.2676 47.4302 30.5645 47.4302H28.8433V51.085ZM32.769 56.6001L30.2349 51.6855L32.271 51.5391L34.9663 56.6001H32.769Z" fill="white"/>
<path d="M45.1748 52.8428V45.936H47.1377V52.9307C47.1377 53.7705 47.3306 54.3711 47.7163 54.7324C48.1069 55.0889 48.6196 55.2671 49.2544 55.2671C49.8892 55.2671 50.3994 55.0864 50.7852 54.7251C51.1758 54.3638 51.3711 53.7656 51.3711 52.9307V45.936H53.3047V52.8428C53.3047 54.2002 52.9116 55.2012 52.1255 55.8457C51.3442 56.4902 50.3848 56.8125 49.2471 56.8125C48.0996 56.8125 47.1328 56.4902 46.3467 55.8457C45.5654 55.2012 45.1748 54.2002 45.1748 52.8428Z" fill="white"/>
<path d="M64.5093 56.6001V45.936H66.5894L70.7275 52.8354C70.8203 52.9819 70.9009 53.1235 70.9692 53.2603C71.0376 53.397 71.1011 53.5361 71.1597 53.6777H71.2183C71.2085 53.5215 71.2012 53.3628 71.1963 53.2017C71.1963 53.0405 71.1963 52.8818 71.1963 52.7256V45.936H72.9541V56.6001H70.8374L66.7212 49.7373C66.6284 49.5908 66.5479 49.4468 66.4795 49.3052C66.416 49.1636 66.355 49.022 66.2964 48.8804H66.2451C66.25 49.0366 66.2524 49.2026 66.2524 49.3784C66.2573 49.5493 66.2598 49.7129 66.2598 49.8691V56.6001H64.5093Z" fill="white"/>
<path d="M96.5352 51.605V50.9312C96.5352 49.2515 96.9697 47.9648 97.8389 47.0713C98.7129 46.1729 99.8359 45.7236 101.208 45.7236C102.575 45.7236 103.698 46.1729 104.577 47.0713C105.456 47.9648 105.896 49.2515 105.896 50.9312V51.605C105.896 53.2847 105.456 54.5737 104.577 55.4722C103.698 56.3657 102.575 56.8125 101.208 56.8125C99.8359 56.8125 98.7129 56.3657 97.8389 55.4722C96.9697 54.5737 96.5352 53.2847 96.5352 51.605ZM98.542 51.7441C98.542 52.9014 98.7837 53.7778 99.2671 54.3735C99.7505 54.9692 100.397 55.2671 101.208 55.2671C102.019 55.2671 102.668 54.9692 103.156 54.3735C103.645 53.7778 103.889 52.9014 103.889 51.7441V50.792C103.889 49.6348 103.645 48.7583 103.156 48.1626C102.668 47.5669 102.019 47.269 101.208 47.269C100.397 47.269 99.7505 47.5669 99.2671 48.1626C98.7837 48.7583 98.542 49.6348 98.542 50.792V51.7441Z" fill="white"/>
<path d="M116.822 56.6001V45.936H120.257C121.668 45.936 122.845 46.3804 123.787 47.269C124.729 48.1528 125.201 49.3735 125.201 50.9312V51.5977C125.201 53.1602 124.729 54.3857 123.787 55.2744C122.845 56.1582 121.668 56.6001 120.257 56.6001H116.822ZM118.777 55.0986H120.228C121.121 55.0986 121.839 54.8032 122.381 54.2124C122.928 53.6167 123.201 52.7573 123.201 51.6343V50.9019C123.201 49.7788 122.928 48.9219 122.381 48.3311C121.839 47.7402 121.121 47.4448 120.228 47.4448H118.777V55.0986Z" fill="white"/>
<path d="M138.244 56.6001V52.7476L134.552 45.936H136.742L138.91 50.0815C138.983 50.2231 139.049 50.3574 139.108 50.4844C139.167 50.6113 139.22 50.7432 139.269 50.8799H139.32C139.369 50.7432 139.42 50.6138 139.474 50.4917C139.533 50.3647 139.599 50.228 139.672 50.0815L141.876 45.936H143.847L140.214 52.667V56.6001H138.244Z" fill="white"/>
<path d="M153.308 53.6118V53.4507H155.3V53.5898C155.3 54.1562 155.483 54.5811 155.85 54.8643C156.221 55.1426 156.736 55.2817 157.395 55.2817C158.054 55.2817 158.56 55.145 158.911 54.8716C159.268 54.5981 159.446 54.2393 159.446 53.7949C159.446 53.3506 159.275 53.0039 158.933 52.7549C158.596 52.5059 157.898 52.2373 156.838 51.9492C155.706 51.6416 154.863 51.2461 154.312 50.7627C153.765 50.2793 153.491 49.6079 153.491 48.7485C153.491 47.8452 153.835 47.1152 154.524 46.5586C155.212 46.002 156.147 45.7236 157.329 45.7236C158.506 45.7236 159.448 46.0142 160.156 46.5952C160.864 47.1714 161.218 47.9307 161.218 48.873V49.0342H159.255V48.895C159.255 48.4019 159.094 48.0063 158.772 47.7085C158.45 47.4106 157.971 47.2617 157.336 47.2617C156.702 47.2617 156.233 47.3838 155.93 47.6279C155.627 47.8721 155.476 48.2041 155.476 48.624C155.476 49.0244 155.635 49.332 155.952 49.5469C156.274 49.7617 156.968 50.0156 158.032 50.3086C159.146 50.6162 159.988 51.0215 160.559 51.5244C161.135 52.0273 161.426 52.7451 161.431 53.6777C161.431 54.6494 161.064 55.416 160.332 55.9775C159.6 56.5342 158.623 56.8125 157.402 56.8125C156.187 56.8125 155.2 56.5366 154.443 55.9849C153.687 55.4282 153.308 54.6372 153.308 53.6118Z" fill="white"/>
<path d="M171.522 53.6118V53.4507H173.514V53.5898C173.514 54.1562 173.697 54.5811 174.063 54.8643C174.435 55.1426 174.95 55.2817 175.609 55.2817C176.268 55.2817 176.773 55.145 177.125 54.8716C177.481 54.5981 177.66 54.2393 177.66 53.7949C177.66 53.3506 177.489 53.0039 177.147 52.7549C176.81 52.5059 176.112 52.2373 175.052 51.9492C173.919 51.6416 173.077 51.2461 172.525 50.7627C171.979 50.2793 171.705 49.6079 171.705 48.7485C171.705 47.8452 172.049 47.1152 172.738 46.5586C173.426 46.002 174.361 45.7236 175.543 45.7236C176.72 45.7236 177.662 46.0142 178.37 46.5952C179.078 47.1714 179.432 47.9307 179.432 48.873V49.0342H177.469V48.895C177.469 48.4019 177.308 48.0063 176.986 47.7085C176.664 47.4106 176.185 47.2617 175.55 47.2617C174.916 47.2617 174.447 47.3838 174.144 47.6279C173.841 47.8721 173.69 48.2041 173.69 48.624C173.69 49.0244 173.849 49.332 174.166 49.5469C174.488 49.7617 175.182 50.0156 176.246 50.3086C177.359 50.6162 178.202 51.0215 178.773 51.5244C179.349 52.0273 179.64 52.7451 179.645 53.6777C179.645 54.6494 179.278 55.416 178.546 55.9775C177.813 56.5342 176.837 56.8125 175.616 56.8125C174.4 56.8125 173.414 56.5366 172.657 55.9849C171.9 55.4282 171.522 54.6372 171.522 53.6118Z" fill="white"/>
<path d="M190.322 56.6001V45.936H197.324V47.4595H192.277V50.3599H196.657V51.8613H192.277V55.084H197.397V56.6001H190.322Z" fill="white"/>
<path d="M210.513 56.6001V52.7476L206.822 45.936H209.012L211.18 50.0815C211.253 50.2231 211.319 50.3574 211.377 50.4844C211.436 50.6113 211.49 50.7432 211.539 50.8799H211.59C211.639 50.7432 211.69 50.6138 211.744 50.4917C211.802 50.3647 211.868 50.228 211.941 50.0815L214.146 45.936H216.116L212.483 52.667V56.6001H210.513Z" fill="white"/>
</svg>