<?xml version='1.0' encoding='utf-8'?>
<svg xmlns="http://www.w3.org/2000/svg" width="164" height="18" viewBox="0 0 164 18" fill="none">
<path d="M5.13984 18H0C0.781055 15.5829 4.18242 5.78571 5.59336 1.56857L4.05644 0.514287C3.7793 0.334286 3.93047 0 4.20762 0H12.0434L17.5611 11.6486L18.0398 7.86857L20.7105 0H26.6314L20.7861 17.2286C20.6098 17.7429 20.257 18 19.7279 18H14.9156C14.3865 16.8429 13.0512 14.22 11.8418 11.8029C11.1363 10.3629 10.3805 8.92286 9.57422 7.30286C9.47344 7.53429 5.99648 17.7171 6.19805 17.2286C6.02168 17.7429 5.66894 18 5.13984 18Z" fill="#727272"/>
<path d="M27.8367 18C26.199 18 25.0148 16.3286 25.5691 14.7343L29.9783 1.56857C29.9027 1.44 29.1468 0.925715 28.517 0.514287C28.2902 0.334286 28.391 0 28.6681 0H48.6732L47.4638 3.57429C47.2875 4.06286 46.8843 4.34571 46.4056 4.34571H33.2285C32.9513 4.34571 32.8506 4.68 33.0521 4.86L34.4127 6.12L34.0347 7.17429H42.6515L41.6689 10.0543C41.4925 10.5429 41.0894 10.8257 40.6107 10.8257H31.616C31.3388 10.8257 31.2381 11.1343 31.4144 11.3143L32.3466 12.1886L31.8427 13.6543H44.0625L42.8279 17.2286C42.6515 17.7429 42.2988 18 41.7697 18H27.8367Z" fill="#727272"/>
<path d="M49.9105 0.514287C49.6838 0.334286 49.7594 0.025714 50.0365 0H57.5951L58.1242 7.92L57.7211 11.9829L61.9287 6.81429C63.0625 5.45143 64.2719 3.90857 65.6828 2.23714H69.4117C69.9912 2.23714 70.4447 2.62286 70.5203 3.21429L71.251 7.89429L71.0242 11.8543C74.9799 6.73714 78.608 1.87714 79.6914 0.437143C79.9181 0.154287 80.2205 0 80.5984 0H86.3429C83.2187 4.01143 72.4855 17.8457 72.6367 17.5629C72.4351 17.8457 72.1328 18 71.7549 18H66.615L65.7332 9.07714C65.456 9.46286 59.3084 17.2543 59.1068 17.5629C58.9053 17.8457 58.6029 18 58.225 18H53.1103C52.808 15.3 51.775 4.24286 51.4726 1.56857C51.3719 1.49143 50.9939 1.26 50.616 0.977143C50.3892 0.848571 50.1877 0.694286 49.9105 0.514287Z" fill="#727272"/>
<path d="M89.1107 18H83.9457C84.6511 15.8657 88.1533 5.65714 89.5642 1.56857L88.0273 0.514287C87.7501 0.334286 87.9013 0 88.1785 0H95.1072L96.1654 3.57429C96.7701 5.47714 97.4 7.61143 97.6771 8.56286C97.6771 8.97429 97.5511 10.8771 97.5511 11.2886C98.307 10.44 100.827 7.74 103.17 5.19429C104.555 3.72857 106.017 2.10857 107.629 0.36C107.831 0.128571 108.108 0 108.435 0H113.575C113.323 0.925715 108.007 16.38 107.73 17.2286C107.554 17.7429 107.201 18 106.672 18H101.557L103.976 10.8257L99.0376 15.7371C98.8109 15.9429 98.5589 16.0457 98.2566 16.0457H94.049L92.3357 10.8514L90.1689 17.2286C89.9925 17.7429 89.6398 18 89.1107 18Z" fill="#727272"/>
<path d="M112.329 18C113.337 14.8371 116.763 5.09143 117.872 1.59429L116.335 0.514287C116.108 0.334286 116.209 0 116.486 0H138.633C137.826 2.36571 133.946 14.0657 132.939 17.2286C132.762 17.7429 132.409 18 131.88 18H126.665L128.227 13.6543H119.736L118.527 17.2286C118.35 17.7429 117.998 18 117.469 18H112.329ZM122.407 5.78571L120.971 10.0029H129.462L131.15 4.96286C131.301 4.55143 131.124 4.34571 130.621 4.34571H121.575C121.298 4.34571 121.198 4.68 121.399 4.86L122.407 5.78571Z" fill="#727272"/>
<path d="M142.508 18H137.369C138.15 15.5829 141.551 5.78571 142.962 1.56857L141.425 0.514287C141.148 0.334286 141.299 0 141.576 0H149.412L154.93 11.6486L155.408 7.86857L158.079 0H164L158.155 17.2286C157.978 17.7429 157.626 18 157.097 18H152.284C151.755 16.8429 150.42 14.22 149.21 11.8029C148.505 10.3629 147.749 8.92286 146.943 7.30286C146.842 7.53429 143.365 17.7171 143.567 17.2286C143.39 17.7429 143.038 18 142.508 18Z" fill="#727272"/>
</svg>